<svg xmlns="http://www.w3.org/2000/svg" xmlns:xlink="http://www.w3.org/1999/xlink" version="1.1" id="&#1057;&#1083;&#1086;&#1081;_4" x="0px" y="0px" width="100px" height="100px" viewBox="0 0 100 100" enable-background="new 0 0 100 100" xml:space="preserve">
<rect x="23" y="44" width="2.5" height="9"/>
<rect x="26.5" y="44" width="2.5" height="9"/>
<rect x="50" y="44" width="2.5" height="9"/>
<rect x="53.5" y="44" width="2.5" height="9"/>
<rect x="77" y="44" width="2.5" height="9"/>
<rect x="80.5" y="44" width="2.5" height="9"/>
<path d="M87.786,51l-0.688-9.875H87.08L87,40h-8v-1h-8v-1H54c0-0.829-0.672-1.5-1.5-1.5c-0.522,0-0.982,0.269-1.251,0.674  c-12.116-4.754-24.67-9.655-37.354-12.602C13.734,24.236,13.397,24,13,24c-0.552,0-1,0.448-1,1s0.448,1,1,1  c0.333,0,0.613-0.173,0.795-0.423C26.429,28.52,38.934,33.408,51,38.15V39H39v1H17h-1v9h-1v2h1v6l4,1h2h8h3.184  c0.413,1.163,1.512,2,2.816,2s2.403-0.837,2.816-2H49h8h12.184c0.413,1.163,1.513,2,2.816,2s2.403-0.837,2.816-2H76h11l1-1v-3  L87.786,51z M21,49h-4v-6h4V49z M30,57h-8V43h8V57z M36,59c-1.104,0-2-0.896-2-2s0.896-2,2-2s2,0.896,2,2S37.104,59,36,59z M39,49  h-8v-6h8V49z M48,49h-8v-6h8V49z M57,57h-8V43h8V57z M66,49h-8v-6h8V49z M72,59c-1.104,0-2-0.896-2-2s0.896-2,2-2s2,0.896,2,2  S73.104,59,72,59z M75,49h-8v-6h8V49z M84,57h-8V43h8V57z M85,51v-9h1.657l0.628,9H85z"/>
</svg>